<?xml version="1.0" encoding="utf-8"?>
<!-- Generator: Adobe Illustrator 22.1.0, SVG Export Plug-In . SVG Version: 6.00 Build 0)  -->
<svg version="1.1"
	 id="svg2" inkscape:output_extension="org.inkscape.output.svg.inkscape" inkscape:version="0.47 r22583" sodipodi:docname="ZZ2.svg" sodipodi:modified="true" sodipodi:version="0.32" xmlns:cc="http://creativecommons.org/ns#" xmlns:dc="http://purl.org/dc/elements/1.1/" xmlns:inkscape="http://www.inkscape.org/namespaces/inkscape" xmlns:rdf="http://www.w3.org/1999/02/22-rdf-syntax-ns#" xmlns:sodipodi="http://sodipodi.sourceforge.net/DTD/sodipodi-0.dtd" xmlns:svg="http://www.w3.org/2000/svg"
	 xmlns="http://www.w3.org/2000/svg" xmlns:xlink="http://www.w3.org/1999/xlink" x="0px" y="0px" viewBox="0 0 189.5 83.3"
	 style="enable-background:new 0 0 189.5 83.3;" xml:space="preserve">
<style type="text/css">
	.st0{fill:#999900;}
	.st1{fill:#FFFFFF;stroke:#999900;stroke-miterlimit:10;}
	.st2{fill:#FF163C;}
	.st3{fill:#FFFFFF;}
	.st4{stroke:#999900;stroke-width:0.25;stroke-miterlimit:10;}
	.st5{font-family:'CourierNewPSMT';}
	.st6{font-size:80px;}
	.st7{font-size:72px;}
	.st8{fill:#999900;stroke:#999900;stroke-width:0.25;stroke-miterlimit:10;}
</style>
<defs>
	
	
		<inkscape:perspective  id="perspective655" inkscape:persp3d-origin="162.74899 : 111.76366 : 1" inkscape:vp_x="0 : 167.64549 : 1" inkscape:vp_y="0 : 1000 : 0" inkscape:vp_z="325.49799 : 167.64549 : 1" sodipodi:type="inkscape:persp3d">
		</inkscape:perspective>
	
		<inkscape:perspective  id="perspective656" inkscape:persp3d-origin="343.5 : 152.66667 : 1" inkscape:vp_x="0 : 229 : 1" inkscape:vp_y="0 : 1000 : 0" inkscape:vp_z="687 : 229 : 1" sodipodi:type="inkscape:persp3d">
		</inkscape:perspective>
</defs>
<sodipodi:namedview  bordercolor="#666666" borderlayer="false" borderopacity="1.0" id="base" inkscape:current-layer="g9644" inkscape:cx="247.1607" inkscape:cy="134.01134" inkscape:pageopacity="0.0" inkscape:pageshadow="2" inkscape:window-height="1004" inkscape:window-maximized="1" inkscape:window-width="1280" inkscape:window-x="-8" inkscape:window-y="-8" inkscape:zoom="1.4247736" pagecolor="#ffffff" showgrid="false">
	</sodipodi:namedview>
<path id="path130" class="st0" d="M84.2,0c1.4,4.8,0.6,8.5,0.6,13.5c-0.1,2.3-0.1,4.9-0.4,7.3L84,21.2c-1-6.3-0.9-13.7-0.9-19.9
	c0-0.4,0.4-0.7,0.3-1.1c0.2-0.3,0.5-0.4,0.9-0.3L84.2,0"/>
<path id="path132" class="st0" d="M84.4,4.1c-0.1,4.8-0.1,8.4-0.4,12.6c0.2-5.1-0.9-10.9-0.2-16.1C84.2,1.8,84.3,3,84.4,4.1"/>
<path id="path134" class="st0" d="M81.7,7.2c0.6,4,1.1,8.2,1,12.3c-0.1,0.4,0.7,1.8-0.3,2.1c-1.7-5-2-10.1-2.5-15.2
	C80,6,80.1,5.3,80.6,5.2C81.3,5.5,81.3,6.6,81.7,7.2"/>
<path id="path136" class="st0" d="M81.8,11.8c0.2,2.1,0.3,4.6,0.5,6.8c-0.9-4-1.7-8.3-1.7-12.6C81.5,7.6,81.4,10,81.8,11.8"/>
<path id="path138" class="st0" d="M88.3,6.8c0.1,1.7-0.5,3.4-0.3,5.1c-0.9,3.1-1.8,6.1-2.4,9.3c-0.2,0.1-0.3,0-0.5-0.2
	c-0.2-4.1,1.5-8.4,1.6-12.4C86.9,8,87,7,87.4,6.3C87.7,6.3,88.2,6.3,88.3,6.8"/>
<path id="path140" class="st0" d="M87.9,6.5c-0.2,1.7-0.4,3.6-0.9,5.3c0.6,0.7-0.2,1.6-0.3,2.3c-0.3,0.6-0.2,1.4-0.5,2L86,16.7
	c0.4-3.2,1.2-7.1,1.5-10.3L87.9,6.5"/>
<path id="path142" class="st0" d="M78.4,8.5c0.1,0.4,0.4,1,0.6,1.4c1,4.4,2,8.5,2.4,13L81,23c-1.7-4.1-2.5-8.3-3.8-12.6
	c-0.3-0.7-0.1-1.7,0.6-2.1C78.1,8.3,78.3,8.3,78.4,8.5"/>
<path id="path144" class="st0" d="M78.6,10.6c0.4,2.9,1.4,5.8,1.7,8.7c-0.8-3.4-2-6.6-2.8-10C78.3,8.5,78.3,10.2,78.6,10.6"/>
<path id="path146" class="st0" d="M91.4,9.8c-1,4.6-2.5,9-4.8,13.1h-0.3c0.4-4.5,2.6-8.3,3.5-12.7c0.3-0.4,0.2-0.7,0.6-1
	C90.9,9,91.1,9.4,91.4,9.8"/>
<path id="path148" class="st0" d="M90.9,9.7c-0.7,3.6-1.9,7.1-3.5,10.4c1.1-3.4,2.1-6.9,3.2-10.4H90.9"/>
<path id="path150" class="st0" d="M77,13.3c0.6,3.7,2.4,7,2.9,10.6c-0.1,0-0.2,0.3-0.4,0.2c-1.6-4.2-3.7-8.3-5.2-12.5
	c0.2-0.5,0.4-1,1-1.1C76.3,10.9,76.5,12.3,77,13.3"/>
<path id="path152" class="st0" d="M76.2,12.8c0.5,2.4,1.3,4.4,1.9,6.6c-1-2.8-2.7-5.2-3.4-8.1C76,10.4,75.6,12.3,76.2,12.8"/>
<path id="path154" class="st0" d="M93.8,11.7c0.3,0.9-0.2,1.1-0.2,2h-0.1c-1.4,3.7-3.5,7.2-5.6,10.7h-0.5c1.2-4.7,3.6-8.6,5.3-13.1
	C93.1,11,93.6,11.4,93.8,11.7"/>
<path id="path156" class="st0" d="M93.3,12.8c-1.2,2.9-2.9,5.7-4.3,8.5c1.2-3.3,2.9-6.5,4.2-9.6C93.5,11.8,93.4,12.4,93.3,12.8"/>
<path id="path158" class="st0" d="M77.4,21.1c0.6,1.7,1.8,3.2,1.8,4.9c-0.9-0.7-1.3-1.8-1.8-2.7c-1.9-3.4-3.9-6.8-5.7-10.2
	c0.3-0.4,1-0.9,1.3-0.3C75.4,15.2,75.7,18.5,77.4,21.1"/>
<path id="path160" class="st0" d="M75.4,18.1l2,4.1c-1.8-2.9-3.3-5.9-5.2-8.8c0-0.2-0.1-0.4,0.2-0.6C74.3,14,74.5,16.3,75.4,18.1"/>
<path id="path162" class="st0" d="M96.1,14c0.1,1.4-0.9,2.6-1.7,3.7c-1.5,2.6-3.1,5.3-5.1,7.6c-0.4,0.1-0.4-0.2-0.5-0.4
	c0.6-2.7,2.6-4.7,3.8-7.2c1-1.2,1.6-3.3,2.8-4.2C95.7,13.5,95.9,13.8,96.1,14"/>
<path id="path164" class="st0" d="M95.5,14.8c-1.7,2.8-3.2,5.7-5.3,8.3c1.7-3,3.5-6.1,5.2-9.1C95.8,14.1,95.5,14.6,95.5,14.8"/>
<path id="path166" class="st0" d="M70.7,15.2c2.8,3.8,5.7,7.7,7.6,11.8c-0.2,0.2-0.5,0-0.7-0.1c-2.5-3.4-5-7.1-7.9-10.3
	c-0.1-0.6-1-1.1-0.4-1.8C69.8,14.3,70.2,15.2,70.7,15.2"/>
<path id="path168" class="st0" d="M71.1,16.4c2,2.7,3.6,5.8,5.7,8.5c-2.3-2.6-4.5-6-7.1-8.9l-0.3-0.7C70.2,15.2,70.8,15.7,71.1,16.4
	"/>
<path id="path170" class="st0" d="M98.5,15.6c0.2,0.6-0.3,1.2-0.5,1.6c-2.3,2.9-4.6,5.9-7.4,8.8l-0.4-0.2c2.3-3.8,4.8-7.5,7.6-10.7
	C98.3,15,98.3,15.4,98.5,15.6"/>
<path id="path172" class="st0" d="M93.4,22.2c1.2-2.1,3.1-4.4,4.7-6.5L98,16.4L93.4,22.2"/>
<path id="path174" class="st0" d="M67.1,16.8l0.4-0.4"/>
<path id="path176" class="st0" d="M66.5,16.2c-0.5,1.2,1.1,1.8,1.6,2.7c3.1,2.8,5.5,6.4,8.7,8.8c-0.2-0.1,0-0.3,0.1-0.4
	c-0.8-1.7-2.5-3-3.3-4.2c-1.8-2.4-3.8-4.9-6.1-6.7L66.5,16.2"/>
<path id="path178" class="st0" d="M67.1,16.8c2.3,1.5,3.4,3.8,5.4,5.6v0.4c-1.6-1.5-3-3.1-4.7-4.7c-0.3-0.5-1.4-0.8-0.8-1.6
	L67.1,16.8"/>
<path id="path180" class="st0" d="M100.6,17.8c0.3,1.2-1.2,1.7-1.8,2.7c-1.9,2.5-4.6,4.4-6.9,6.5c-0.6-0.1,0.1-0.6,0-1
	c2.7-3,4.9-6.3,7.9-8.9C100.4,16.9,100.5,17.6,100.6,17.8"/>
<path id="path182" class="st0" d="M99.6,19c-2.4,2.3-4.2,4.8-6.7,6.5c2.4-2.6,4.7-5.5,7.1-8.1C100.2,18,99.9,18.7,99.6,19"/>
<path id="path184" class="st0" d="M65.1,18.1C69,21,72,24.8,75.5,28.2c0.2,0.2,0.1,0.5-0.2,0.7c-3.9-3.6-8.2-6.4-11.9-10.4
	c-0.1-0.4,0.3-0.7,0.4-1C64.3,17.6,65,17.7,65.1,18.1"/>
<path id="path186" class="st0" d="M65.8,19.3c2.1,2.1,4.6,4.4,6.7,6.5c-2.4-2.4-6.4-4.8-8.7-7.7C64.7,18.1,65.3,18.9,65.8,19.3"/>
<path id="path188" class="st0" d="M61.8,19.7c3.9,2.6,7.4,5.7,11.2,8.6v0.3h-0.4c-4.3-2.5-8.4-5.4-12.5-8c-0.1-0.4,0.1-0.8,0.5-1
	L61.8,19.7"/>
<path id="path190" class="st0" d="M61.4,20c2.6,1.5,4.8,3.5,7.2,5.3l-0.1,0.1c-2.7-1.9-5.6-3.3-8.2-5.3c0-0.2,0.3-0.3,0.4-0.4
	L61.4,20"/>
<path id="path192" class="st0" d="M104.1,19.7c-0.3,2-2.6,2.9-4,4.2c-2.4,1.6-4.6,3.6-7,4.8l-0.4-0.4c2.5-2.8,6.2-6,9.5-8.5
	C102.8,19.3,103.5,19.4,104.1,19.7"/>
<path id="path194" class="st0" d="M103.6,19.9c-2.7,3.2-6.3,5.1-9.5,7.6c2.5-2.5,5.9-5.7,9.3-7.7L103.6,19.9"/>
<path id="path196" class="st0" d="M107.1,21.8c-1.9,2.4-4.9,3-7.1,5c-1.9,1.1-3.4,1.6-5.3,2.7l-0.2,0.2c-0.2-0.2-0.2-0.5-0.1-0.7
	c3.3-3,7.3-5.8,11.2-8c0.5,0,1.2-0.5,1.5,0.2L107.1,21.8"/>
<path id="path198" class="st0" d="M71.8,29.3l-0.1,0.3c-5.6-1.8-10.7-4.9-16.1-7.1c0.3-0.5,0.4-1.2,1.1-1.5
	C61.6,24.1,66.9,26.1,71.8,29.3"/>
<path id="path200" class="st0" d="M69.8,28.6c-4.8-1.9-9-4.3-13.8-6.2l0.6-1.1C60.9,24,65.4,26,69.8,28.6"/>
<path id="path202" class="st0" d="M106.7,21.3c-2.2,2.6-5.4,3.4-8,5.5c-0.9,0.2-1.6,1-2.4,1.3c2.9-2.4,6.4-5,9.8-6.7L106.7,21.3"/>
<path id="path204" class="st0" d="M72.6,22.8l0.2,0.3L72.6,22.8"/>
<path id="path206" class="st0" d="M111.1,23.4c-0.2,1.2-1.8,1.5-2.7,2c-4,1.7-8.1,3.1-11.8,5.2l-0.5-0.2c0.6-1.3,2.3-1.8,3.4-2.7
	c3.3-1.5,6.4-3.9,9.9-4.9C110,22.9,110.9,22.7,111.1,23.4"/>
<path id="path208" class="st0" d="M70.9,30.6c0.1,0.1,0.3,0.3,0.2,0.5c-6.7-2-13-4.1-19.4-6.6c-0.3-0.6,0.4-0.7,0.4-1.2
	C58.5,25.1,64.8,27.9,70.9,30.6"/>
<path id="path210" class="st0" d="M110.6,23.4c-0.2,0.7-1,0.7-1.4,1.1c-3.2,1.4-6.4,2.6-9.6,3.9c3.1-1.4,6.6-4,10.4-5H110.6"/>
<path id="path212" class="st0" d="M66.1,28.9c-4.4-1.4-9.3-3-14-4.6c-0.3-0.3,0.2-0.5,0.2-0.9C57,25.1,61.7,26.8,66.1,28.9"/>
<path id="path214" class="st0" d="M116,24.9c0.1,0.7-0.5,1.2-1,1.5c-3.4,0.6-6.3,2.9-9.6,3.3c-0.9,0.5-1.9,0.3-2.7,0.9
	c3.3-0.4,6.3-1.6,9.6-1.9c0.4,0.1,0.9,0.2,1,0.6c0.1,0.5-0.2,0.8-0.6,1c-4.9,1-10.1,2.5-15.1,2.6c-0.7-0.2,0.2-1.3-0.7-0.7
	c-0.5,0.2-0.2-0.4-0.6-0.6c1.3-1.3,3.5-1.6,5.2-2.4c4.3-1.7,8.9-3.2,13.3-4.9C115.3,24.2,115.7,24.4,116,24.9"/>
<path id="path216" class="st0" d="M115.4,25c-0.1,0.5-0.7,0.7-1.1,1c-3.3,0.7-6,2.7-9.4,3.2l-3.6,1c4.2-1.9,9.2-3.2,13.6-5.1
	L115.4,25"/>
<path id="path218" class="st0" d="M68.4,31.1c0.8,0.2,1.4,0.6,2.1,0.9c-0.1,0.1,0.1,0.3-0.1,0.4c-5-1.9-10.8-1.7-15.9-3.2
	c-0.6-0.4-0.4-1-0.2-1.5c0.8-0.4,1.8-0.2,2.5,0L68.4,31.1"/>
<path id="path220" class="st0" d="M62.5,29.8c0.6,0.3,1.3,0.4,1.9,0.6L55.1,29c-0.3-0.3-1-0.4-0.6-1c0.6-0.2,1.3-0.2,1.9,0
	C58.6,28.6,60.4,29.4,62.5,29.8"/>
<path id="path222" class="st0" d="M112.7,29.5c-2.9,1-6.1,1.1-8.8,1.8h-0.3c2.7-0.8,5.2-1.3,8-2L112.7,29.5L112.7,29.5"/>
<path id="path224" class="st0" d="M63,31.4c1.1,0.5,2.5,0.5,3.6,0.7c1.1,0.3,2.8,0.2,3.6,1.2c-0.8,0.3-1.9-0.2-2.9-0.2
	c-3.3-0.4-7.1-0.7-10.4-0.8c-0.7,0.1-0.9-0.7-0.6-1.2c0.5-0.8,1.7-0.2,2.5-0.2C60.1,31.1,61.6,31.4,63,31.4"/>
<path id="path226" class="st0" d="M62.7,32.1c-2.1-0.2-4.2,0-6.3-0.5c0.1-0.8,0.8-0.2,1.2-0.3C59.4,31.8,61.2,31.7,62.7,32.1"/>
<path id="path228" class="st0" d="M103.4,31.3c-1,0.5-2.7,0.5-3.5,0.7C100.9,31.7,102.3,31.8,103.4,31.3"/>
<path id="path230" class="st0" d="M111.7,33c0.1,0.4-0.4,0.8-0.7,0.9c-4,0.3-8.8-0.2-12.7,0.4c0.1-0.1,0.1-0.5-0.2-0.6
	c0.1-0.1,0.4-0.3,0.6-0.2c0-0.1,0.1-0.1,0.1-0.2l-0.1-0.1c0.8,0.3,1.9-0.1,2.8-0.1c3.2-0.4,6.4-0.8,9.6-0.8
	C111.4,32.5,111.5,32.6,111.7,33"/>
<path id="path232" class="st0" d="M111.2,32.9l-0.5,0.5l-8.5,0.1c3.1-0.3,5.7-0.7,8.9-0.8L111.2,32.9"/>
<path id="path234" class="st0" d="M63,33.9c2-0.2,4.3-0.5,6.3-0.1c0.5,0.8,1.7,0,2.3,0.7c-0.9,1-2.6,0.3-3.8,0.6
	c-3.2,0.2-6.3,0.5-9.5,0.1c-0.3-0.4-0.4-0.9,0.1-1.2c1.1-0.4,2.9-0.5,4.3-0.3L63,33.9"/>
<path id="path236" class="st0" d="M64.9,34.1c1.6-0.1,3.3,0.3,4.7,0.4c-3.3,0.4-6.3,0.1-9.5,0.6c-0.4-0.2-0.9-0.1-1.4-0.1
	c-0.3-0.5,0.3-0.8,0.7-1C61.2,33.6,63.3,34.4,64.9,34.1"/>
<path id="path238" class="st0" d="M109.1,35.3c0.2,0.2,0.1,0.4,0.1,0.6c-2.2,1.8-5.1,0.6-7.7,0.5c-2.5,0.2-4.6-0.3-6.7,0l-0.1-0.3
	c0.1-0.2,0.4,0,0.6-0.2c0.1-0.7,1,0,1.5-0.3c0.9,0,1.7-0.2,2.4-0.6v0.1C102.5,35.5,105.9,33.9,109.1,35.3"/>
<path id="path240" class="st0" d="M108.6,35.6c-1.7,1.8-4.5,0.3-6.6,0.5c-1-0.2-3.3-0.1-4.4-0.1c2.2-0.7,6.6,0,8.7-0.6
	C107,35.4,108,35.3,108.6,35.6"/>
<path id="path242" class="st0" d="M72.3,35.8c-0.3,1.3-2.1,1.4-3.2,1.6c-2.8,0.4-5.8,1-8.8,1.3c-0.6,0-1.4,0.1-1.7-0.7
	c-0.2-0.6,0.6-0.6,0.9-0.8c3.9-0.6,8.8-1.1,12.3-1.4C71.9,35.8,72.2,35.7,72.3,35.8"/>
<path id="path244" class="st0" d="M70.4,36.5c-3.6,0.9-7.3,1.4-11.1,1.7c-0.1-0.1-0.2-0.3-0.2-0.4c3.6-1.2,8.2-1,11.7-1.7L70.4,36.5
	"/>
<path id="path246" class="st0" d="M95.7,38.5c0.9,0.2,1.9,0.6,2.3,0.4V39c1,0,2,0.3,2.9,0.6c2,0.4,4.2,0.9,6.2,1.1
	c0.4-0.1,0.7-0.5,0.6-1c-0.9-0.5-1.4-0.6-2.4-0.7c-3.4-1-7.1-0.9-10.6-1.6l-0.5,0.4L95.7,38.5"/>
<path id="path248" class="st0" d="M96.3,38.1c2.9,0.5,5.6,0.4,8.5,1.1c0.8,0.4,1.9,0.2,2.6,0.7c-0.5,0.6-1.1,0.6-1.8,0.4
	c-1.6-0.4-3.4-0.6-4.9-1c-0.7-0.3-1.6-0.2-2.2-0.5c-0.1,0-0.1,0.2-0.2,0.1c-0.1-0.1-0.1-0.1-0.1-0.2c-0.5,0-2.3-0.7-3.2-0.9l1.3,0.1
	"/>
<path id="path250" class="st0" d="M95.7,37.8c-0.2,0-0.3-0.1-0.5-0.1"/>
<path id="path252" class="st0" d="M70.8,38.3l-0.2,0.2c-0.4-0.3-0.3,0.4-0.7,0.3c-3.4,0.7-6.5,2.3-9.8,3.2c-0.3-0.1-0.6-0.1-0.8-0.4
	c-0.4-0.6,0.4-1,0.9-1.2c3-0.9,6.1-1.3,8.9-2.5l1.9-0.3C71.5,37.9,70.9,38.1,70.8,38.3"/>
<path id="path254" class="st0" d="M69.8,38.3c-3.4,1.1-6.6,2.4-10,3.2c0-0.5,0.7-0.5,1.1-0.8C63.8,39.9,66.8,39.2,69.8,38.3"/>
<path id="path256" class="st0" d="M72.3,39.3v0.2c-2.7,1.8-4.9,3.9-8,4.7c-0.4,0.5-0.7,0.1-1.1,0.7l-0.1-0.1
	c-0.5,0.5-1.2,1.2-2.1,0.8c-0.3-0.3-0.6-0.9-0.3-1.3c2.6-2.3,6.4-1.9,9-4.1c0.9-0.3,1.6-0.9,2.4-1.2L72.3,39.3"/>
<path id="path258" class="st0" d="M100.2,41c2,0.3,4.7,0.4,6.5,1.8c0.1,0.4,0.3,0.9-0.2,1.2c-3.2,0.6-5.5-1.9-8.3-2.5
	c-1.2-0.6-2.4-1.2-3.7-1.6c0.6-1.3,1.9,0.1,2.9,0.2L100.2,41"/>
<path id="path260" class="st0" d="M71.2,42.3c-1.7,1.5-3.2,2.9-5,4.2v0.3C65.4,47,65,47.5,64.4,48L64,48.1l0.1,0.1
	c-0.5,0.3-1.3,0.3-1.9,0c-0.2-0.3-0.4-0.6-0.2-0.9c2-1.9,4.3-3.3,6.5-4.8v-0.2c0.8,0.5,1.4-0.6,2.1-1C71.5,40.3,72.4,41.8,71.2,42.3
	"/>
<path id="path262" class="st0" d="M98.6,41l0.9,0.3L98.6,41"/>
<path id="path264" class="st0" d="M106.3,43.2c0,0,0.1,0.1,0.1,0.2c-2.6,0.5-4.5-1.1-6.6-2C102,41.7,104.3,42,106.3,43.2"/>
<path id="path266" class="st0" d="M61.7,45.1h-0.5c-0.2-0.5,0.4-1,0.8-1.2c1.8-1,4-1.1,5.8-2.1C66.3,43.3,63.4,43.3,61.7,45.1"/>
<path id="path268" class="st0" d="M101.7,44.4c1.7,0.7,3.4,1.7,5,2.6c0.1,0.5-0.2,0.9-0.6,1.1c-1.7-0.4-3.3-1.1-4.8-1.9
	c-2.1-1.2-4.2-2.6-6.5-3.6c0-0.7,1.3-0.3,1.9-0.3C98.2,43.2,100,43.7,101.7,44.4"/>
<path id="path270" class="st0" d="M71.4,45.2c-2.5,2.2-4.4,4.6-6.5,6.9c-0.5,0.2-0.9,0.5-1.1,0.8c-0.6-0.1-1.1,0.6-1.3-0.2V52
	c2.9-2.8,5.8-5.7,9.2-8.2l0.8-0.9C73.3,43.8,71.7,44.4,71.4,45.2"/>
<path id="path272" class="st0" d="M63.5,48c-0.3,0.2-1,0.2-1-0.3c2.1-1.6,4.5-3.4,6.9-4.7C67.8,44.7,65.5,46.3,63.5,48"/>
<path id="path274" class="st0" d="M106.1,47.3v0.2c-1.7-0.2-3.2-1.4-4.8-2l-4-2.4C100.3,44.4,103.3,45.7,106.1,47.3"/>
<path id="path276" class="st0" d="M105.3,50.9l0.4,0.5c-1.3,1-2.6-0.4-3.7-1c-2.5-1.9-4.8-3.9-7.3-5.7c0.2-0.4-0.4-0.6-0.1-1
	C98.4,45.5,101.7,48.3,105.3,50.9"/>
<path id="path278" class="st0" d="M99.9,52.2c-0.5,0.1-1,0.3-1.4-0.2c-2.2-1.8-3.6-4.4-5.7-6.4l0.2-0.2
	C95.3,47.9,98.4,49.3,99.9,52.2"/>
<path id="path280" class="st0" d="M73.1,46.4c-3.4,3.6-6,7.8-9.6,11.2c-0.3,0-0.8,0.5-1,0c-0.3-0.2-0.6-0.7-0.2-1
	c2.9-4.1,7.4-7.4,10.9-11.2C73.8,45.7,73.1,46.1,73.1,46.4"/>
<path id="path282" class="st0" d="M104.9,51.2c-3.1-0.8-5.4-3.5-8-5.5C99.6,47.2,102.3,49.3,104.9,51.2"/>
<path id="path284" class="st0" d="M86.1,46.2c1.4,2.5,2.4,5.5,2.5,8.2c-0.2,0.3-0.6,0.2-0.9,0.1c-1.2-1.2-0.8-2.9-1.4-4.3
	c0.1-1.4-0.9-2.6-0.6-4.1L86.1,46.2"/>
<path id="path286" class="st0" d="M69.3,46.5c-2.1,1.6-3.9,4.5-6.3,6v-0.2C65,50.4,67.1,48.3,69.3,46.5"/>
<path id="path288" class="st0" d="M84.8,47.7c0.5,2.6,1.1,4.8,1,7.5c-0.4,0.2-0.8,0.6-1.2,0.3c-0.8-1.4-0.5-3.2-0.7-4.7V47
	C84.4,46.1,84.9,47.1,84.8,47.7"/>
<path id="path290" class="st0" d="M96.2,52v0.7c-0.3,0.2-0.7,0.3-1.1,0.1c-1.7-1-2.7-2.9-3.7-4.6c-0.3-0.3-0.5-0.6-0.6-1
	c0.4-0.7,0.9,0,1.3,0.1C93.5,48.6,95.5,50.2,96.2,52"/>
<path id="path292" class="st0" d="M82.6,47.5c0.1,2.9-0.1,5.8-0.3,8.7c-0.3,0.4-0.9,0.6-1.4,0.4c-0.3-1.3,0.2-2.7,0.3-4.2l1-5
	C82.3,47.2,82.5,47.2,82.6,47.5"/>
<path id="path294" class="st0" d="M95.7,52.3c-0.1,0.2-0.4,0.1-0.6,0.1c-1.4-1.4-2.4-3.4-3.8-5.1C93,48.6,94.8,50.5,95.7,52.3"/>
<path id="path296" d="M107.2,52.5c-2,0-4,0.2-5.7,0.8c-4.6,0.3-8.9,1.6-13.4,2.8c-6.8,2.6-13,3.6-20.3,4.4l-1.5,0.2h-0.2h-0.3
	c-0.1,0-0.3,0-0.4,0c-3.1,0.4-6,1.3-9.1,0.9c0.8-1.2,1.4-2.7,1.5-4.1c0-0.7-0.3-1.4-0.9-1.7V56c0,0,0,0,0.1,0c0.1,0,0.1,0.1,0.1,0.1
	c0,0-0.1-0.3-0.4-0.4c-0.2-0.1-0.4,0-0.4,0c0,0,0.4,0,0.4,0c0,0,0,0,0,0c0,0-0.5-0.6-0.7-0.5c-0.1,0-0.1,0.1-0.1,0.1
	c0,0,0.2,0,0.2,0c-0.2-0.1-0.6-0.3-1.1-0.5c-2.7-1-6.4-0.4-8.2,1.7c-0.6,0.7-0.5,1.8-0.5,2.7c1,1.6,1.3,3.9,1.8,5.7
	c0.9,2.1,0.7,5.5,0.6,7.7l-0.2,0.3c0.1,1.2-0.1,2.6-0.4,3.8l0.2,0.2c3.5,1.7,7.3,3,11,3c8,1,16.2-1.1,23.8-3
	c3.6-1.4,7.4-2.3,11.1-3.4c3.8-1.3,7.7-1.9,11.7-2c-1.4,1.8-2.6,4.2-3.4,6.3c2,1.3,4.3,1.9,6.8,1.4c1.6-0.1,3.1-1.4,3.7-2.8
	c-0.2-2.2,0.6-4.3,1.2-6.5c1.4-4.3,5.3-7.7,5.3-12.5h0.1c-1.4-2.4-4.2-3.4-6.6-4.3C111.3,52.7,109.2,52.5,107.2,52.5z M66.3,58.3
	C66.2,58.4,66.2,58.4,66.3,58.3L66.3,58.3C66.3,58.4,66.3,58.4,66.3,58.3z"/>
<path id="path298" class="st0" d="M80.1,48.3c0,3-0.3,6.3-0.9,8.8c-0.4,0.2-1,0.7-1.3,0.3c0.1-2.4,0.9-4.8,1.1-7.1
	c-0.2-0.6,0.3-1.3,0.3-1.9C79.4,48.2,79.9,47.7,80.1,48.3"/>
<path id="path300" class="st0" d="M88.1,54.2l-0.5-0.6l-1.1-5.4C87.4,50,87.7,52.3,88.1,54.2"/>
<path id="path302" class="st0" d="M99.5,51.8l-0.7-0.1l-3.2-3.4C96.9,49.4,98.3,50.5,99.5,51.8"/>
<path id="path304" class="st0" d="M92.7,53.5c0.1,0.5-0.5,0.3-0.7,0.5c-1.2-0.4-1.4-1.8-2.1-2.7l-1.2-2.5c0.3-0.4,0.7,0.1,1.1,0.2
	C91.2,50.3,92.1,51.8,92.7,53.5"/>
<path id="path306" class="st0" d="M75.9,49.2c-1,2.6-2.5,4.7-3.3,7.3c-1.1,1-1.3,3.6-3.1,3.2l-0.3-0.5c1.4-3.9,3.7-7.2,6.2-10.5
	C75.6,48.8,76.1,48.8,75.9,49.2"/>
<path id="path308" class="st0" d="M85.2,55.1l-0.3,0.1c-0.4-1.9-0.4-4.6-0.4-6.4C84.9,50.8,85.2,53.1,85.2,55.1"/>
<path id="path310" class="st0" d="M77.5,49.3c-0.1,0.2,0.1,0.3,0.2,0.4c-0.2,0.6-0.7,1.2-0.7,1.8c-0.4,0.6-0.2,1.4-0.6,1.9
	c-0.1,1.8-0.5,3.3-0.8,5c-0.5,0.1-1.3,0.7-1.8,0.1c0.5-3.2,2-6,3-9C77,49.5,77.2,49.3,77.5,49.3"/>
<path id="path312" class="st0" d="M92.1,53.5c-0.4-0.2-0.8-0.8-1.1-1.2l-1.6-2.8C90.8,50.6,91.6,51.9,92.1,53.5"/>
<path id="path314" class="st1" d="M65.8,59.6c-0.1,0-0.1,0-0.2,0c1.1-2.4,2.8-4.6,4.2-6.9c1-1.3,1.9-2.5,2.9-3.8
	C70.4,52.5,68.1,56,65.8,59.6z"/>
<path id="path316" class="st0" d="M62.8,57.4c-0.4-0.5,0.6-1,0.7-1.6c1.6-1.9,3.5-3.6,5.1-5.3C66.9,52.8,65,55.3,62.8,57.4"/>
<path id="path318" class="st0" d="M81.6,56.1h-0.3c0.2-1.8,0.3-3.3,0.7-5C82,53,82,54.5,81.6,56.1"/>
<path id="path320" class="st0" d="M78.7,57.1l-0.3,0.1c0.2-1.8,0.8-3.8,1-5.8C79.3,53.2,79,54.9,78.7,57.1"/>
<path id="path322" class="st0" d="M70.2,59.2h-0.3c1.1-2.2,2.1-4.5,3.6-6.5C72.5,55,71.3,56.9,70.2,59.2"/>
<path id="path324" class="st2" d="M114.8,54.2c1.7,1.1,5,2.1,4.3,4.9c-1.9,5.1-5.8,9.4-6.5,14.9c-3.3-3.8-8.6-3.4-13.3-2.1
	c-3.5,0.4-6.4,1.4-9.6,2.5c-4.4,1.4-8.9,2.6-13.5,3.8c-6.2,1.9-12.5,2-19.3,1.3c-2.9-0.4-5.6-1.4-8.1-2.7v-0.9
	c0.9,0.5,2.3,1,3.2,0.4v-0.2l-3-0.7c0-0.6,0.3-1.2,0.3-1.7c0.7,0.1,1.5,1.1,2.2,0.2c-0.5-0.6-1.4-0.4-2.1-0.9v-1.6
	c0.9,0.2,1.8,1,2.7,0.6c-0.3-1-1.6-0.7-2.3-1.3c-0.7,0.2-0.3-0.7-0.4-0.9v-0.1c0.7,0.3,1.3,1.1,2.2,0.7c-0.3-0.9-1.4-0.7-2.1-1.3
	c-0.2-0.3-0.1-0.7-0.1-1.1c0.7,0.1,1.5,1,2.2,0.4c-0.6-0.9-2.8-0.4-2.4-2.1c0.7,0.1,1.3,0.7,1.9,0.3c-0.6-1.2-2.7-0.3-2.6-2.1
	l-0.2-0.9c0.6,0.5,1.4,0.5,2.1,0.8l0.2-0.3c-0.9-0.7-1.9-0.6-2.6-1.4c-0.1-0.6,0-1.2-0.4-1.7c0.9-0.3,1.2,1.3,2.2,0.8
	c1.7,0.3,3.3,0.6,5.2,0.5c0,0.2,0.2,0.3,0.3,0.4c0.2,0,0.4-0.2,0.5-0.4c5.6,0.1,11-1.2,16.5-1.8c5.9-0.9,12.1-2.3,17.7-4.3
	c4.6-1.5,9.5-2.1,14.3-2.8c2.5,0.1,5-0.6,7.4,0.2C112.7,53.5,113.8,54,114.8,54.2"/>
<path id="path326" class="st0" d="M75.6,54.1h0.6v-0.6h-0.6V54.1z"/>
<path id="path328" class="st0" d="M75.1,58.1c-0.2,0.3-0.4,0.3-0.8,0.3c-0.1-0.5,0.2-1,0.3-1.6c0.5-0.3,0.6-1,0.7-1.6
	c0.4-0.3,0-0.6,0.4-1C75.5,55.3,75.2,56.9,75.1,58.1"/>
<path id="path330" class="st2" d="M57.1,56.7l0.3,0.7c-1.9,0.7-4.6,1.8-6.6,0.6c-1,0.8-1.4,1.9-1.9,2.9c-0.6-0.2-1.1-0.4-1.7-0.8
	c-0.6-1.2-0.4-2.2,0.2-3.4c1.8-1.4,4.3-2.1,6.9-1.6C55.2,55.4,56.2,56,57.1,56.7"/>
<path id="path332" d="M112.1,58.1c1.2,2.1,1.1,5,0.1,7.2c-1.3,1.9-3.2,3.2-5.6,3.2c-2.4,0.1-4.3-1.4-5.6-3.4
	c-1.1-1.9-1.4-5.2-0.1-7.1c1.4-1.4,3.3-2.4,5.1-2.6C108.1,55.1,110.7,56.2,112.1,58.1"/>
<path id="path334" class="st3" d="M111.5,58.1c1.5,2.1,0.9,5-0.1,7.2c-1.3,1.9-3.3,2.7-5.5,2.7c-1.6-0.1-3.2-0.9-3.9-2.3
	c-1.7-2-1.7-5.4-0.5-7.6C104.2,55.9,109.1,54.6,111.5,58.1"/>
<path id="path336" d="M98.6,57.1c-0.1,1.4,0.1,2.7,0.2,4c-0.9,0.3-1.6-0.9-2.3-1.2c-1-0.2-1.9-0.6-2.9,0c-2.4,1.7-0.9,4.7-0.4,6.7
	c0.3,0.6,1,0.9,1.6,1.1c0.5,0.1,1-0.2,1.2-0.6c0.3-1.7-0.4-3.2-0.9-4.7l0.1-0.4c1.3,0.6,3.9-0.7,4.1,1.5c0.4,1.4,0.2,3.2,1.1,4.6
	c0.1,0.6-0.5,0.2-0.8,0.5c-0.4,0.3-0.9,0.7-1.4,0.5c-1.8,1.5-4.7,1-6.6,0.1c-1.1-0.6-2.1-1.6-2.5-2.9c-1-2.2-0.5-4.4,0.6-6.5
	l1.4-1.6c0.2,0,0.7-0.3,1.1-0.5c1.4-1.2,4.3,0,6-1.3L98.6,57.1"/>
<path id="path338" class="st3" d="M98.1,57.2c-0.2,1,0.1,2.1,0.1,3.1c-0.5-0.1-1.1-0.8-1.7-1.1C95.3,59,94,58.4,93,59.4
	c-2.1,1.9-1,5.3-0.2,7.4c0.8,1.1,1.8,1.5,3,1.2c1.6-1.4,0.3-3.7-0.1-5.4c0.9,0.3,1.8,0.3,2.8,0.3c0.7,1.6,0.3,3.6,1.1,5
	c-2.3,1.3-6.2,2.5-8.6,0.5c-1.6-1.4-2.5-3.2-2.2-5.5c0.3-2.2,2-4.3,4.2-5C94.7,57.8,96.7,58,98.1,57.2"/>
<path id="path340" d="M108.7,59.5c0.2,2.3,1,5.5-1.4,6.9c-0.6,0.4-1.2,0.3-1.9,0c-1.7-1.9-1.9-5-1.3-7.5c0.5-1,1.7-1.4,2.7-1.4
	C107.6,58.1,108.2,58.6,108.7,59.5"/>
<path id="path342" class="st2" d="M108.1,59.5c0.3,2.1,0.8,5.1-1.2,6.4c-0.4,0-0.8,0.5-1.2,0.2c-1.4-2-1.7-4.7-1-7.1
	c0.5-0.6,1.2-1.1,2-1L108.1,59.5"/>
<path id="path344" class="st2" d="M55.2,61.8c-1.8,0-3.9,0-5.6-0.6c0.5-0.7,0.4-2.3,1.6-2.7c1.8,1,4.2,0.6,6-0.4
	C56.9,59.4,56.4,60.9,55.2,61.8"/>
<path id="path346" d="M87.4,59.8C86.5,62.9,88,65.6,88,69c-0.1,1,2.2,1.5,1.1,2.3c-1.3,0.7-2.7,0.5-4,1c-0.3-0.9,0.2-1.9-0.1-3
	c-0.4-2.4-0.7-4.8-1.5-7.1c-0.2-0.5-0.9-0.1-0.9-0.7c0.9-1.3,2.9-1.5,4.5-1.8L87.4,59.8"/>
<path id="path348" class="st3" d="M87.4,68.7c0.2,0.9,0.6,1.8,1.4,2.1c-1.1,0.3-2.2,0.7-3.3,0.7c0.1-3.1-0.9-6.3-1.4-9.4
	c-0.3-0.4-0.5-0.8-1-0.8c0.9-0.6,2.2-0.7,3.4-1.2C86.1,63,87.5,65.8,87.4,68.7"/>
<path id="path350" d="M81.7,63.1c1.3,1.4,1.4,3.4,0.7,4.9c-0.3,0.7-1,1-1.6,1.5c0.6,1.5,2.4,1.3,3.8,1.4c-0.3,1-1.2,1.9-2.1,2.4
	c-2.7,0.9-4.2-1.9-6.1-2.9c-0.3,0.3-0.2,0.8-0.1,1.1c0.3,0.8,0.1,1.8,0.5,2.5c-0.2,1.4-1.9,1-2.9,1.3c-0.4-0.3-1.2-0.6-0.8-1.2
	c0.3-2-0.2-4.1-0.3-6c-0.2-1.2,0-2.8-0.9-4h-0.3c-0.4-0.7,0.5-0.6,0.8-1C75.1,62.2,79.2,60.7,81.7,63.1"/>
<path id="path352" class="st3" d="M82,64.4c0.6,1.5,0.6,2.6-0.3,4c-0.9,1.1-1.9,0.7-3,1.1c0.3,0.5,1,0.6,1.6,0.7
	c0.9,1.1,2.2,1.9,3.5,1.5c-0.7,1.2-2.1,1.5-3.4,1.4c-1.3-0.8-2.5-1.9-3.6-3c-0.4,0-1.1,0.3-1,1c0.4,1.2,0.3,2.2,0.6,3.5
	c-0.9,0.2-1.6,0.6-2.5,0.5c-0.2-3.6-0.1-7.2-1.3-10.9c1.5-1,3.5-1.2,5.4-1.7C79.6,62.3,81.1,63,82,64.4"/>
<path id="path354" d="M70.2,63.4c0.3,0.5-0.5,0.9-0.6,1.4c0.1,2.9,0.4,6.5,1.2,9.5c0.2,0.6,1.6,0.1,1,1.1c-0.1,0.4-0.6,0.7-1.1,0.9
	c-0.4-0.3-1.2,0.4-1.6,0c-0.8,0.2-1.9,0.4-2.5,0.2c-0.1-0.4,0.3-0.7,0.6-1c-0.3-3.4-0.6-6.4-1.3-9.6c-0.3-0.5-1-0.2-1-0.9
	c0.9-1.5,2.8-1,4.3-1.6C69.5,63.5,69.9,63.4,70.2,63.4"/>
<path id="path356" class="st3" d="M69.1,65.2c-0.1,3.1,0.5,5.9,1,8.8c0.1,0.7,1.3,1.1,1.1,1.6L67.7,76c-0.2-3-0.3-7.1-1.3-10.5
	L65.6,65c0.3-0.4,1.1-0.3,1.7-0.5C67.9,64.5,70,63.1,69.1,65.2"/>
<path id="path358" d="M78.7,64.6c0.7,0.7,0.5,1.9,0.2,2.8c-0.5,0.9-1.7,0.8-2.5,1.2c-1.1-0.7-0.6-2.5-1.2-3.7
	C76,64.3,77.7,63.4,78.7,64.6"/>
<path id="path360" d="M64.1,67.6L64,67.7c1.3,2.4,0.6,4.7-0.5,7c-0.8,1.1-2.5,1.4-3.3,1.4l-0.3,0.2c-1.6-0.2-3,0.3-4.7-0.1
	c-0.3-0.3-1-0.2-1.4-0.5c-0.4,0.1-0.1-0.4-0.3-0.5c0.5-0.1,0.8-0.5,0.9-1c-0.5-2.8,0.4-6.1-0.6-8.9c-0.2-0.2-1-0.3-0.6-0.7l0.1-0.3
	C57,65.2,62.4,63.2,64.1,67.6"/>
<path id="path362" class="st2" d="M78.5,65.3c0.3,0.9-0.1,1.9-0.9,2.3c-0.5,0-0.7,0.3-1.2,0.3c-0.1-0.9-0.3-2-0.6-2.9
	C76.7,64.7,78.1,64.1,78.5,65.3"/>
<path id="path364" class="st3" d="M62.2,65.9c1.6,1.4,2.4,3.5,1.9,5.6c-0.4,1.4-0.8,3.2-2.4,3.8c-2.4,0.2-4.6,0.9-6.9,0.1
	c-0.2-0.5,0.2-1.2,0.2-1.8c-0.4-2.9,0.6-5.7-0.5-8.3L54.2,65C57,65.4,59.4,65,62.2,65.9"/>
<path id="path366" d="M60.7,67.2c1.4,1.2,2.1,2.8,1.7,4.9c-0.6,1.4-1.4,2.5-2.7,2.7c-0.6-0.3-1.1,0.1-1.9,0
	c-0.5-0.6-0.4-1.4-0.5-2.1c0-2.1-0.1-4,0.1-6l0.2-0.3C58.2,66.9,59.7,66.8,60.7,67.2"/>
<path id="path374" class="st2" d="M61.2,68.3c0.9,1,0.8,2.6,0.5,3.7c-0.4,0.9-1,1.7-1.9,2.1H58c-0.1-2.2-0.5-4.9-0.1-7
	C58.9,67.5,60.5,67.2,61.2,68.3"/>
<path id="path380" class="st2" d="M111.2,73.4c-0.4,1-1.1,1.9-1.6,2.7c-0.8-1.2-2.2-1.6-3.8-1.4c-0.7,0.3-1.2,0.8-1.8,1.3
	c0.8-1.4,1.1-2.9,2.4-4.1l-0.1-0.2C108.1,71.9,109.9,72.1,111.2,73.4"/>
<path id="path382" class="st2" d="M112.6,75.6c-0.1,1.1-0.8,2-1.7,2.7c-2.1,0.8-5.3,0.9-7.2-0.4c0.2-1,1.4-2.2,2.5-2.6
	c0.9-0.1,1.8,0.1,2.5,0.6c0.4,0.4,0.4,0.9,0.9,1.2c0.6-1.1,1.6-2.2,2.2-3.3C112.2,74.4,112.5,75,112.6,75.6"/>
<path id="path1416" class="st0" d="M83.4,26.2l2.3,6.5l6.9,0.1L87.1,37l2,6.6l-5.7-3.9l-5.6,3.9l2-6.6l-5.5-4.2l6.9-0.1L83.4,26.2"
	/>
<text transform="matrix(1 0 0 1 -2.5 70.7143)" class="st4 st5 st6">&lt;</text>
<text transform="matrix(1 0 0 1 144.5002 70.7143)" class="st4 st5 st6">&gt;</text>
<text transform="matrix(1 0 0 1 113.1667 65.3152)" class="st4 st5 st7">/</text>
<path class="st4" d="M55.1,54.8"/>
<path class="st8" d="M44.5,45.4"/>
<path d="M57.2,56.3"/>
</svg>
